<svg xmlns="http://www.w3.org/2000/svg" viewBox="0 0 850 850">
    <defs>
        <linearGradient id="a" x1=".72" x2=".36" y1=".35" y2=".61" gradientUnits="objectBoundingBox" spreadMethod="pad">
            <stop offset="0" stop-color="#6ae7af"/>
            <stop offset="1" stop-color="#98ebc5"/>
        </linearGradient>
        <linearGradient id="c" x1=".7" x2=".23" y1=".26" y2=".94" gradientUnits="objectBoundingBox" spreadMethod="pad">
            <stop offset="0" stop-color="#3e83ee"/>
            <stop offset="1" stop-color="#5986f0"/>
        </linearGradient>
        <linearGradient id="d" x1=".81" x2="0" y1=".36" y2=".74" gradientUnits="objectBoundingBox" spreadMethod="pad">
            <stop offset="0" stop-color="#459fff"/>
            <stop offset="1" stop-color="#c2ddff"/>
        </linearGradient>
        <filter id="b" width="1.01" height="1.02" x="-.01" y="-.01">
            <feGaussianBlur in="SourceGraphic" stdDeviation="1 1"/>
        </filter>
    </defs>
    <path fill="#6fe6b1" d="M424.25 838 93 629.64V481.09l331.25 208.1V838z"/>
    <path fill="#4dd197" d="m424.25 838 331.26-208.36V481.09l-331.26 208.1V838z"/>
    <path fill="url(#a)" d="m755.51 481.09-331.26 208.1L93 481.09l331.25-177.65 331.26 177.65z"/>
    <path fill="#5f6fa5" fill-opacity=".15" fill-rule="evenodd" d="M188.14 427.34 429.12 586.1 758 405.12 473.07 239.01 188.14 427.34z" filter="url(#b)"/>
    <path fill="#5da4ff" d="M424.25 549.56 93 341.2V192.65l331.25 208.1v148.81z"/>
    <path fill="url(#c)" d="M424.25 549.56 755.51 341.2V192.65l-331.26 208.1v148.81z"/>
    <path fill="url(#d)" d="m755.51 192.65-331.26 208.1L93 192.65 424.25 15l331.26 177.65z"/>
    <path fill="#1960d1" d="m304.91 205-15.04-89.87 74.92-.65 29.09-.46 7.36-.29 2.75-.33 6.38 35.3-74.54-.01 7.23 56.32-38.15-.01zm120.28 62.54 102.08.01-.2-78.92.19-16.35H482.9v55.88l-57.71-.01v39.39z"/>
</svg>
